<?xml version="1.0" encoding="utf-8"?><!-- Uploaded to: SVG Repo, www.svgrepo.com, Generator: SVG Repo Mixer Tools -->
<svg version="1.1" id="designs" xmlns="http://www.w3.org/2000/svg" xmlns:xlink="http://www.w3.org/1999/xlink" 
	 width="800px" height="800px" viewBox="0 0 32 32" xml:space="preserve">
<style type="text/css">
	.sketchy_een{fill:#111918;}
</style>
<path class="sketchy_een" d="M15.124,27.897c0.004,0.001,0.008,0.001,0.011,0.002c-0.049-0.006-0.097-0.013-0.145-0.019
	c0.018,0.002,0.035,0.004,0.053,0.006C15.07,27.89,15.097,27.894,15.124,27.897z M15.153,27.901c0.001,0,0.002,0,0.003,0
	c0.007,0.001,0.013,0.002,0.02,0.003C15.168,27.903,15.161,27.902,15.153,27.901z M15.148,27.901c0.002,0,0.003,0,0.005,0
	c-0.006,0-0.012-0.001-0.018-0.002C15.139,27.9,15.144,27.9,15.148,27.901z M15.156,27.902c0.013,0.001,0.026,0.003,0.039,0.005
	c-0.007-0.001-0.014-0.002-0.022-0.003c-0.007-0.001-0.015-0.001-0.022-0.002C15.153,27.901,15.155,27.902,15.156,27.902z
	 M27.816,6.523c-0.011,0.009-0.024,0.017-0.035,0.026c0.165,0.189,0.327,0.38,0.465,0.591c0.195,0.299,0.377,0.61,0.564,0.917
	c0.089,0.147,0.109,0.311,0.101,0.473c0.12,0.147,0.201,0.328,0.207,0.531c0.019,0.643,0.022,1.285,0.011,1.927
	c0.048,0.001,0.096,0.005,0.143,0.006c0.332,0.004,0.622,0.211,0.743,0.504c0.007,0,0.012-0.004,0.019-0.004
	c0.456,0,0.877,0.393,0.861,0.863c-0.026,0.792-0.05,1.585-0.058,2.378c-0.01,0.841,0.02,1.685-0.002,2.528
	c-0.018,0.763-0.062,1.529-0.074,2.294c-0.028,1.505,0.12,3.006,0.096,4.509c-0.008,0.427-0.351,0.784-0.783,0.784
	c-0.022,0-0.039-0.011-0.06-0.013c-0.03,0.005-0.056,0.019-0.087,0.021c-0.253,0.013-0.507,0.007-0.76-0.007
	c0.087,0.243,0.172,0.488,0.268,0.729c0.274,0.629,0.574,1.247,0.791,1.898c0.141,0.427-0.161,0.901-0.578,1.017
	c-0.213,0.058-0.445,0.028-0.636-0.084c-0.195-0.115-0.305-0.285-0.379-0.494c-0.1-0.278-0.19-0.559-0.297-0.834
	c-0.128-0.288-0.27-0.567-0.395-0.856c-0.193-0.442-0.369-0.889-0.528-1.347c-0.017-0.049-0.008-0.099-0.014-0.149
	c-0.128-0.008-0.255-0.019-0.383-0.025c-0.48-0.023-0.962-0.016-1.444-0.001c-0.246,1.005-0.506,2.004-0.798,2.997
	c-0.122,0.418-0.558,0.678-0.983,0.56c-0.018-0.005-0.031-0.019-0.048-0.024c-0.262,0.228-0.654,0.297-0.961,0.104
	c-0.689-0.433-1.185-1.108-1.672-1.751c-0.042,0.028-0.078,0.064-0.122,0.09c-0.375,0.217-0.757,0.435-1.164,0.584
	c-0.694,0.255-1.377,0.532-2.113,0.64c-0.444,0.066-0.895,0.084-1.343,0.086c-0.187,0-0.373,0-0.56-0.006
	c-0.213-0.009-0.425-0.045-0.635-0.077c-0.012-0.001-0.024-0.003-0.036-0.004c0.005,0,0.009,0.001,0.014,0.002
	c-0.001,0-0.002,0-0.004,0c-0.004,0-0.008-0.001-0.011-0.001c-0.001,0-0.002,0-0.003,0h-0.001c-0.003,0-0.006-0.001-0.009-0.001
	c-0.001,0-0.002,0-0.003,0c-0.026-0.004-0.052-0.007-0.079-0.01c-0.313-0.041-0.62-0.089-0.922-0.184
	c-0.367-0.111-0.704-0.295-1.054-0.448c-0.146-0.064-0.297-0.118-0.439-0.195c-0.154-0.083-0.3-0.182-0.448-0.272
	c-0.362,0.492-0.725,0.984-1.108,1.46c-0.138,0.173-0.413,0.261-0.626,0.261c-0.208,0-0.405-0.085-0.564-0.219
	c-0.039,0.034-0.069,0.077-0.115,0.103c-0.397,0.233-0.875,0.082-1.116-0.293c-0.279-0.431-0.576-0.847-0.855-1.278
	c-0.169-0.257-0.325-0.526-0.502-0.777c-0.131-0.184-0.264-0.368-0.4-0.549c-0.015-0.018-0.032-0.034-0.047-0.052
	c-0.029,0.062-0.061,0.123-0.09,0.185c-0.318,0.676-0.664,1.338-0.962,2.026c-0.046,0.112-0.089,0.225-0.13,0.338
	c-0.074,0.202-0.175,0.363-0.365,0.475c-0.181,0.105-0.405,0.136-0.61,0.08c-0.197-0.056-0.369-0.187-0.472-0.365
	c-0.098-0.167-0.154-0.422-0.08-0.61c0.267-0.682,0.56-1.359,0.875-2.021c0.277-0.579,0.542-1.164,0.801-1.751
	c0.01-0.028,0.019-0.057,0.027-0.085c0.019-0.31-0.008-0.626-0.011-0.936c-0.006-0.402-0.012-0.807-0.01-1.212
	c0.004-0.84,0.011-1.681,0.049-2.521c-0.115-0.003-0.23-0.002-0.345-0.006c-1.154-0.04-2.31-0.012-3.464-0.006
	c-0.443,0.002-0.811-0.371-0.811-0.811c0-0.049,0.02-0.092,0.028-0.139C1.17,17.355,1.081,16.62,1.05,15.888
	C1.014,15.023,0.998,14.162,1,13.297c0-0.201,0.082-0.38,0.201-0.527c0.016-0.421,0.37-0.803,0.803-0.803c0.008,0,0.015,0,0.023,0
	c0.213,0.008,0.429,0.016,0.642,0.024c0.865,0.03,1.732,0.076,2.599,0.086c0.295,0.004,0.59-0.003,0.886-0.004
	c-0.039-0.132-0.054-0.27-0.004-0.406c0.452-1.234,0.833-2.498,1.357-3.706c0.135-0.31,0.274-0.616,0.413-0.924
	c-0.132-0.062-0.262-0.13-0.395-0.189C7.183,6.706,6.842,6.56,6.502,6.415C5.81,6.126,5.106,5.863,4.412,5.581
	C4.201,5.495,4.034,5.404,3.916,5.2C3.802,5.009,3.772,4.774,3.832,4.56c0.056-0.207,0.195-0.387,0.381-0.496
	c0.117-0.069,0.282-0.12,0.437-0.12c0.072,0,0.142,0.011,0.203,0.036c1.15,0.479,2.294,0.973,3.436,1.467
	c0.093,0.041,0.183,0.088,0.276,0.13c0.223-0.514,0.448-1.026,0.696-1.531c0.133-0.271,0.43-0.411,0.723-0.411
	c0.149,0,0.297,0.036,0.423,0.109c0.413,0.241,0.508,0.74,0.301,1.148c-0.23,0.457-0.444,0.922-0.661,1.385
	c0.348,0.171,0.696,0.344,1.052,0.5c0.387,0.156,0.783,0.279,1.165,0.446c0.381,0.168,0.759,0.347,1.139,0.523
	c0.274,0.108,0.554,0.195,0.836,0.274c0.444,0.127,0.716,0.594,0.592,1.042c-0.058,0.211-0.199,0.395-0.389,0.504
	c-0.179,0.105-0.451,0.164-0.652,0.086c-0.131-0.05-0.26-0.103-0.388-0.157c-0.239-0.1-0.474-0.203-0.704-0.33
	c-0.211-0.117-0.438-0.213-0.662-0.307c-0.77-0.317-1.564-0.579-2.316-0.94C9.599,7.863,9.478,7.8,9.357,7.74
	C9.263,7.939,9.165,8.136,9.077,8.338C8.825,8.961,8.599,9.595,8.37,10.224c-0.225,0.617-0.465,1.227-0.691,1.843
	c0.028,0,0.056,0,0.084,0c0.257,0,0.518,0.002,0.777,0.004c0.536,0.002,1.072,0.008,1.607-0.018
	c0.181-0.008,0.361-0.023,0.542-0.038c0.072-0.006,0.143-0.008,0.215-0.002c0.271,0.02,0.466,0.107,0.672,0.283
	c0.123,0.106,0.191,0.262,0.235,0.425c0.29-0.216,0.597-0.409,0.93-0.561c0.401-0.181,0.807-0.339,1.22-0.488
	c0.369-0.136,0.74-0.319,1.126-0.391c0.856-0.162,1.715-0.202,2.581-0.202c0.043,0,0.086,0,0.129,0
	c0.268,0.002,0.512,0.124,0.678,0.314c0.29,0.037,0.573,0.086,0.859,0.151c0.257,0.058,0.522,0.094,0.769,0.189
	c0.207,0.08,0.425,0.14,0.632,0.224c0.246,0.099,0.465,0.235,0.69,0.366c-0.013-0.151-0.027-0.303-0.038-0.454
	c-0.034-0.462,0.413-0.851,0.851-0.851c0.035,0,0.063,0.016,0.097,0.02c0.057-0.013,0.11-0.036,0.17-0.038
	c0.684-0.024,1.367-0.042,2.053-0.046c0.235,0,0.472,0,0.708,0c0.303,0.002,0.608,0.004,0.911-0.002
	c0.432-0.005,0.863-0.018,1.294-0.02c0.003-0.174,0.008-0.349,0.003-0.523c-0.014-0.449-0.038-0.899-0.056-1.348
	c0-0.004,0.002-0.007,0.002-0.01c-0.035-0.04-0.075-0.073-0.106-0.118c-0.222-0.328-0.413-0.676-0.643-0.996
	c-0.12-0.141-0.243-0.278-0.36-0.422c-0.184,0.119-0.371,0.233-0.555,0.354c-0.311,0.203-0.622,0.407-0.937,0.604
	c-0.159,0.102-0.311,0.215-0.47,0.317c-0.142,0.094-0.289,0.179-0.429,0.275c-0.355,0.243-0.871,0.07-1.074-0.281
	c-0.227-0.385-0.074-0.837,0.281-1.075c0.482-0.321,0.971-0.638,1.455-0.96c0.252-0.168,0.5-0.344,0.75-0.522
	c-0.234-0.308-0.469-0.615-0.697-0.926c-0.136-0.186-0.15-0.48-0.09-0.692c0.062-0.225,0.211-0.418,0.413-0.536
	c0.138-0.081,0.296-0.124,0.456-0.124c0.079,0,0.159,0.011,0.236,0.032c0.241,0.068,0.395,0.215,0.536,0.413
	c0.202,0.282,0.405,0.561,0.605,0.843c0.06-0.043,0.121-0.086,0.182-0.128c0.271-0.188,0.56-0.353,0.845-0.524
	c0.622-0.373,1.252-0.726,1.908-1.042c0.145-0.069,0.287-0.114,0.438-0.114c0.069,0,0.14,0.009,0.214,0.03
	c0.211,0.058,0.395,0.199,0.506,0.389c0.114,0.195,0.146,0.433,0.084,0.652c-0.054,0.195-0.199,0.417-0.389,0.506
	c-0.528,0.247-1.052,0.504-1.559,0.793C28.614,6.028,28.196,6.248,27.816,6.523z M5.565,17.461c0.512-0.012,1.027-0.026,1.539-0.024
	c0.496,0.002,0.995,0.012,1.491-0.006c0.047-0.001,0.087,0.019,0.132,0.025c0.046-0.16,0.084-0.323,0.138-0.48
	c0.146-0.431,0.343-0.843,0.554-1.246c0.269-0.515,0.579-1.03,0.934-1.512c-0.027-0.052-0.064-0.098-0.078-0.158
	c-0.039-0.16-0.048-0.31-0.041-0.463c-0.083,0.004-0.166,0.008-0.248,0.011c-0.343,0.012-0.684,0.016-1.025,0.018
	c-0.722,0.002-1.441,0.002-2.163,0.01c-1.369,0.017-2.734,0.024-4.102,0.001c-0.009,0.75-0.02,1.502,0.009,2.252
	c0.014,0.341,0.038,0.68,0.068,1.019c0.015,0.172,0.032,0.344,0.046,0.517C3.735,17.446,4.651,17.484,5.565,17.461z M10.655,25.785
	c0.024-0.033,0.052-0.055,0.077-0.084c-0.01-0.009-0.023-0.017-0.033-0.026c-0.148-0.134-0.277-0.283-0.411-0.429
	c-0.12-0.131-0.245-0.257-0.361-0.393c-0.151-0.178-0.287-0.371-0.425-0.56c-0.229-0.311-0.427-0.64-0.602-0.985
	c-0.417-0.821-0.63-1.748-0.67-2.665c-0.018-0.405,0.028-0.805,0.066-1.206c0.011-0.12,0.031-0.236,0.047-0.354
	c-0.254-0.005-0.508-0.008-0.761-0.011c-0.046,0.748-0.089,1.499-0.086,2.247c0.002,0.379-0.004,0.757-0.004,1.136
	c-0.002,0.345,0.016,0.688,0.018,1.033c0,0.068-0.012,0.134-0.015,0.201c0.51,0.578,0.998,1.172,1.423,1.816
	c0.315,0.474,0.619,0.954,0.924,1.433C10.103,26.547,10.382,26.166,10.655,25.785z M20.079,25.463
	c0.233-0.134,0.444-0.295,0.656-0.457c0.317-0.245,0.64-0.485,0.941-0.749c0.281-0.246,0.532-0.52,0.765-0.811
	c0.396-0.527,0.76-1.099,1.029-1.703c0.15-0.393,0.266-0.802,0.333-1.219c0.035-0.345,0.057-0.691,0.06-1.038
	c0.004-0.328,0.004-0.658-0.029-0.983c-0.081-0.486-0.216-0.97-0.395-1.428c-0.118-0.271-0.246-0.542-0.396-0.796
	c-0.174-0.297-0.388-0.576-0.593-0.853c-0.24-0.29-0.515-0.554-0.805-0.791c-0.232-0.176-0.47-0.353-0.714-0.505
	c-0.175-0.111-0.361-0.201-0.54-0.307c-0.108-0.064-0.213-0.134-0.325-0.193c-0.146-0.054-0.293-0.105-0.438-0.164
	c-0.203-0.083-0.419-0.124-0.63-0.175c-0.223-0.054-0.44-0.118-0.668-0.151c-0.253-0.038-0.502-0.09-0.753-0.144
	c-0.099-0.021-0.189-0.062-0.268-0.118c-0.414,0.002-0.826,0.019-1.24,0.067c-0.197,0.031-0.394,0.064-0.587,0.115
	c-0.243,0.062-0.476,0.164-0.712,0.255c-0.409,0.158-0.823,0.311-1.228,0.478c-0.253,0.117-0.491,0.257-0.719,0.416
	c-0.395,0.328-0.761,0.693-1.085,1.091c-0.429,0.583-0.808,1.203-1.104,1.863c-0.134,0.343-0.233,0.695-0.334,1.049
	c-0.095,0.329-0.195,0.657-0.254,0.994c-0.04,0.315-0.077,0.633-0.101,0.95C9.919,20.5,9.934,20.84,9.97,21.179
	c0.066,0.424,0.166,0.838,0.318,1.239c0.218,0.479,0.489,0.923,0.801,1.347c0.333,0.4,0.69,0.777,1.096,1.101
	c0.346,0.265,0.699,0.517,1.078,0.736c0.195,0.111,0.399,0.195,0.602,0.287c0.168,0.076,0.332,0.158,0.499,0.234
	c0.438,0.167,0.9,0.251,1.363,0.32c0.557,0.061,1.134,0.055,1.691-0.002c0.341-0.054,0.676-0.134,1.001-0.255
	c0.318-0.116,0.639-0.231,0.954-0.353C19.617,25.724,19.849,25.594,20.079,25.463z M23.396,26.691
	c0.086-0.301,0.176-0.602,0.255-0.904c0.087-0.336,0.158-0.675,0.232-1.014c-0.041,0.002-0.083,0.004-0.124,0.006
	c-0.151,0.007-0.286-0.046-0.41-0.122c-0.127,0.155-0.257,0.307-0.401,0.446c-0.164,0.158-0.344,0.298-0.519,0.444
	c0.181,0.237,0.359,0.477,0.539,0.714C23.097,26.42,23.248,26.553,23.396,26.691z M29.257,23.26
	c-0.016-0.34-0.029-0.681-0.046-1.022c-0.036-0.785-0.098-1.575-0.098-2.364c0.002-0.759,0.028-1.515,0.062-2.274
	c0.074-1.664-0.026-3.332-0.005-4.996c-0.235-0.007-0.471-0.011-0.706-0.03c-0.247-0.02-0.496-0.038-0.745-0.042
	c-0.538-0.01-1.076-0.006-1.613,0.002c-0.987,0.013-1.972,0.064-2.956,0.112c0.005,0.056,0.007,0.112,0.012,0.168
	c0.017,0.096,0.037,0.191,0.058,0.286c0.038,0.172,0.014,0.341-0.038,0.498c0.182,0.171,0.362,0.346,0.516,0.541
	c0.203,0.261,0.381,0.53,0.564,0.805c0.116,0.171,0.231,0.343,0.321,0.53c0.066,0.142,0.13,0.285,0.197,0.426
	c0.187,0.393,0.379,0.806,0.48,1.232c0.102,0.427,0.191,0.859,0.235,1.296c0.038,0.367,0.01,0.737-0.026,1.104
	c-0.042,0.437-0.094,0.875-0.171,1.304c-0.068,0.369-0.175,0.724-0.299,1.076c-0.146,0.413-0.341,0.81-0.564,1.191
	c0.229-0.003,0.458-0.011,0.687-0.011c0.132,0,0.264,0,0.396,0.001c0.12,0.002,0.241,0.002,0.361,0.002
	c0.387,0,0.775-0.002,1.162,0.016c0.482,0.024,0.965,0.05,1.445,0.098C28.747,23.237,29.002,23.254,29.257,23.26z M20.693,23.14
	c-0.016,0.021-0.034,0.04-0.05,0.06c-0.024,0.032-0.047,0.065-0.072,0.098C20.611,23.246,20.651,23.195,20.693,23.14z
	 M21.695,21.676c0.151-0.325,0.269-0.664,0.353-1.013c0.046-0.185,0.068-0.376,0.094-0.566c0.018-0.136,0.034-0.269,0.028-0.405
	c-0.016-0.409-0.329-0.751-0.751-0.751c-0.385,0-0.785,0.343-0.751,0.751c0.011,0.129,0.002,0.258-0.013,0.387
	c-0.043,0.283-0.123,0.556-0.224,0.824c-0.153,0.312-0.369,0.583-0.582,0.857c0.018-0.023,0.036-0.047,0.054-0.071
	c-0.197,0.252-0.401,0.518-0.644,0.731c-0.181,0.122-0.377,0.217-0.577,0.306c-0.482,0.195-0.981,0.313-1.488,0.434
	c-0.451,0.106-0.714,0.612-0.594,1.046c0.126,0.457,0.598,0.706,1.048,0.596c0.57-0.14,1.114-0.317,1.644-0.57
	c0.227-0.106,0.453-0.217,0.66-0.359c0.14-0.094,0.273-0.204,0.397-0.319c0.113-0.104,0.203-0.233,0.295-0.355
	c0.193-0.254,0.38-0.511,0.566-0.77C21.383,22.188,21.568,21.945,21.695,21.676z"/>
</svg>